<?xml version="1.0" encoding="utf-8"?>
<!-- Generator: Adobe Illustrator 21.1.0, SVG Export Plug-In . SVG Version: 6.00 Build 0)  -->
<svg version="1.1" id="Calque_1" xmlns="http://www.w3.org/2000/svg" xmlns:xlink="http://www.w3.org/1999/xlink" x="0px" y="0px"
	 viewBox="0 0 297.6 566.9" style="enable-background:new 0 0 297.6 566.9;" xml:space="preserve">
<style type="text/css">
	.st0{fill:none;stroke:#000000;stroke-width:0.75;}
	.st1{font-family:'HelveticaNeue';}
	.st2{font-size:7px;}
	.st3{letter-spacing:1;}
	.st4{font-size:6px;}
	.st5{font-family:'Times-Roman';}
	.st6{font-size:10px;}
	.st7{font-size:10.5px;}
	.st8{clip-path:url(#SVGID_2_);fill:none;stroke:#FFFFFF;stroke-width:1.25;stroke-miterlimit:10;}
	.st9{clip-path:url(#SVGID_2_);fill:none;stroke:#000000;stroke-width:0.25;stroke-miterlimit:10;}
	.st10{clip-path:url(#SVGID_2_);}
	.st11{clip-path:url(#SVGID_2_);fill:none;stroke:#FFFFFF;stroke-width:0.25;stroke-miterlimit:10;}
	.st12{clip-path:url(#SVGID_2_);fill:none;stroke:#FFFFFF;stroke-width:0.4;stroke-miterlimit:10;}
	.st13{clip-path:url(#SVGID_4_);}
	.st14{clip-path:url(#SVGID_4_);fill:none;stroke:#FFFFFF;stroke-width:0.4;stroke-miterlimit:10;}
	.st15{font-family:'Helvetica-Bold';}
	.st16{font-family:'Helvetica';}
	.st17{clip-path:url(#SVGID_6_);fill:none;stroke:#000000;stroke-width:0.761;stroke-miterlimit:10;}
	.st18{clip-path:url(#SVGID_6_);fill:none;stroke:#000000;stroke-width:2.551;stroke-miterlimit:10;}
	.st19{clip-path:url(#SVGID_6_);}
	.st20{font-family:'MinionPro-Regular';}
	.st21{font-size:8.9492px;}
</style>
<line class="st0" x1="5.8" y1="110.7" x2="290.6" y2="110.7"/>
<line class="st0" x1="5.8" y1="173.1" x2="290.6" y2="173.1"/>
<line class="st0" x1="6.6" y1="216.1" x2="291.3" y2="216.1"/>
<line class="st0" x1="6.6" y1="451.4" x2="291.3" y2="451.4"/>
<line class="st0" x1="6.6" y1="543.5" x2="291.3" y2="543.5"/>
<line class="st0" x1="147.2" y1="110.6" x2="147.2" y2="173.2"/>
<line class="st0" x1="147.2" y1="451.4" x2="147.2" y2="543.5"/>
<line class="st0" x1="89.1" y1="216" x2="89.1" y2="451.2"/>
<text transform="matrix(1 0 0 1 156.7197 125.1956)"><tspan x="0" y="0" class="st1 st2">Naam en voo</tspan><tspan x="41.6" y="0" class="st1 st2">r</tspan><tspan x="44.1" y="0" class="st1 st2">naam van de voorschrijver</tspan></text>
<text transform="matrix(1 0 0 1 5.8481 186.6907)" class="st1 st2">DOOR DE VOORSCHRIJVER IN TE VULLEN:</text>
<text transform="matrix(1 0 0 1 5.8481 197.6878)"><tspan x="0" y="0" class="st1 st2">Naam en voo</tspan><tspan x="41.6" y="0" class="st1 st2">r</tspan><tspan x="44.1" y="0" class="st1 st2">naam </tspan></text>
<text transform="matrix(1 0 0 1 5.8481 208.6849)"><tspan x="0" y="0" class="st1 st2">van de </tspan><tspan x="23" y="0" class="st1 st2">r</tspan><tspan x="25.2" y="0" class="st1 st2">echthebbende:</tspan></text>
<text transform="matrix(1 0 0 1 78.0815 208.6849)" class="st1 st2"> </text>
<text transform="matrix(1 0 0 1 79.7964 208.6849)"><tspan x="0" y="0" class="st1 st2 st3">............................</tspan><tspan x="108.8" y="0" class="st1 st2 st3">.</tspan><tspan x="112.7" y="0" class="st1 st2 st3">................</tspan><tspan x="174.8" y="0" class="st1 st2 st3">.</tspan><tspan x="178.7" y="0" class="st1 st2 st3">.</tspan><tspan x="182.6" y="0" class="st1 st2 st3">.</tspan><tspan x="186.5" y="0" class="st1 st2 st3">.</tspan><tspan x="190.4" y="0" class="st1 st2 st3">.</tspan><tspan x="194.3" y="0" class="st1 st2 st3">.</tspan><tspan x="198.2" y="0" class="st1 st2 st3">.</tspan><tspan x="202.1" y="0" class="st1 st2">.</tspan></text>
<text transform="matrix(1 0 0 1 286.0723 208.6849)" class="st1 st2">.</text>
<text transform="matrix(1 0 0 1 5.8481 227.7083)"><tspan x="0" y="0" class="st1 st4">V</tspan><tspan x="3.3" y="0" class="st1 st4">oorbehouden aan het</tspan></text>
<text transform="matrix(1 0 0 1 5.8481 234.9085)" class="st1 st4">verpakkingsvignet</text>
<text transform="matrix(1 0 0 1 100.1001 229.4964)" class="st5 st6">R/</text>
<text transform="matrix(1 0 0 1 30.0327 463.2269)" class="st1 st2">Stempel van de voorschrijver</text>
<text transform="matrix(1 0 0 1 172.5596 463.2269)" class="st1 st2">Datum en handtekening van de </text>
<text transform="matrix(1 0 0 1 201.3652 471.6273)" class="st1 st2">voorschrijver</text>
<line class="st0" x1="147.3" y1="499.5" x2="291.3" y2="499.5"/>
<text transform="matrix(1 0 0 1 159.8301 510.471)"><tspan x="0" y="0" class="st1 st2">Uitvoerbaar vanaf voo</tspan><tspan x="68.8" y="0" class="st1 st2">r</tspan><tspan x="71.3" y="0" class="st1 st2">noemde datum of </tspan></text>
<text transform="matrix(1 0 0 1 213.7656 518.8714)" class="st1 st2">vanaf:</text>
<text transform="matrix(1 0 0 1 149.5264 539.2689)" class="st1 st2">.</text>
<text transform="matrix(1 0 0 1 151.4727 539.2689)" class="st1 st2"> </text>
<text transform="matrix(1 0 0 1 153.4189 539.2689)" class="st1 st2">.</text>
<text transform="matrix(1 0 0 1 155.3643 539.2689)" class="st1 st2"> </text>
<text transform="matrix(1 0 0 1 157.3105 539.2689)" class="st1 st2">.</text>
<text transform="matrix(1 0 0 1 159.2568 539.2689)" class="st1 st2"> </text>
<text transform="matrix(1 0 0 1 161.2021 539.2689)" class="st1 st2">.</text>
<text transform="matrix(1 0 0 1 163.1484 539.2689)" class="st1 st2"> </text>
<text transform="matrix(1 0 0 1 165.0947 539.2689)" class="st1 st2">.</text>
<text transform="matrix(1 0 0 1 167.04 539.2689)" class="st1 st2"> </text>
<text transform="matrix(1 0 0 1 168.9863 539.2689)" class="st1 st2">.</text>
<text transform="matrix(1 0 0 1 170.9326 539.2689)" class="st1 st2"> </text>
<text transform="matrix(1 0 0 1 172.8789 539.2689)" class="st1 st2">.</text>
<text transform="matrix(1 0 0 1 174.8242 539.2689)" class="st1 st2"> </text>
<text transform="matrix(1 0 0 1 176.7705 539.2689)" class="st1 st2">.</text>
<text transform="matrix(1 0 0 1 178.7168 539.2689)" class="st1 st2"> </text>
<text transform="matrix(1 0 0 1 180.6621 539.2689)" class="st1 st2">.</text>
<text transform="matrix(1 0 0 1 182.6084 539.2689)" class="st1 st2"> </text>
<text transform="matrix(1 0 0 1 184.5547 539.2689)" class="st1 st2">.</text>
<text transform="matrix(1 0 0 1 186.5 539.2689)" class="st1 st2"> </text>
<text transform="matrix(1 0 0 1 188.4463 539.2689)" class="st1 st2">.</text>
<text transform="matrix(1 0 0 1 190.3926 539.2689)" class="st1 st2"> </text>
<text transform="matrix(1 0 0 1 192.3389 539.2689)" class="st1 st2">.</text>
<text transform="matrix(1 0 0 1 194.2842 539.2689)" class="st1 st2"> </text>
<text transform="matrix(1 0 0 1 196.2305 539.2689)" class="st1 st2">.</text>
<text transform="matrix(1 0 0 1 198.1768 539.2689)" class="st1 st2"> </text>
<text transform="matrix(1 0 0 1 200.1221 539.2689)" class="st1 st2">.</text>
<text transform="matrix(1 0 0 1 202.0684 539.2689)" class="st1 st2"> </text>
<text transform="matrix(1 0 0 1 204.0146 539.2689)" class="st1 st2">.</text>
<text transform="matrix(1 0 0 1 205.9609 539.2689)" class="st1 st2"> </text>
<text transform="matrix(1 0 0 1 207.9062 539.2689)" class="st1 st2">.</text>
<text transform="matrix(1 0 0 1 209.8525 539.2689)" class="st1 st2"> </text>
<text transform="matrix(1 0 0 1 211.7988 539.2689)" class="st1 st2">.</text>
<text transform="matrix(1 0 0 1 213.7441 539.2689)" class="st1 st2"> </text>
<text transform="matrix(1 0 0 1 215.6904 539.2689)" class="st1 st2">.</text>
<text transform="matrix(1 0 0 1 217.6367 539.2689)" class="st1 st2"> </text>
<text transform="matrix(1 0 0 1 219.582 539.2689)" class="st1 st2">.</text>
<text transform="matrix(1 0 0 1 221.5283 539.2689)" class="st1 st2"> </text>
<text transform="matrix(1 0 0 1 223.4746 539.2689)" class="st1 st2">.</text>
<text transform="matrix(1 0 0 1 225.4209 539.2689)" class="st1 st2"> </text>
<text transform="matrix(1 0 0 1 227.3662 539.2689)" class="st1 st2">.</text>
<text transform="matrix(1 0 0 1 229.3125 539.2689)" class="st1 st2"> </text>
<text transform="matrix(1 0 0 1 231.2588 539.2689)" class="st1 st2">.</text>
<text transform="matrix(1 0 0 1 233.2041 539.2689)" class="st1 st2"> </text>
<text transform="matrix(1 0 0 1 235.1504 539.2689)" class="st1 st2">.</text>
<text transform="matrix(1 0 0 1 237.0967 539.2689)" class="st1 st2"> </text>
<text transform="matrix(1 0 0 1 239.042 539.2689)" class="st1 st2">.</text>
<text transform="matrix(1 0 0 1 240.9883 539.2689)" class="st1 st2"> </text>
<text transform="matrix(1 0 0 1 242.9346 539.2689)" class="st1 st2">.</text>
<text transform="matrix(1 0 0 1 244.8809 539.2689)" class="st1 st2"> </text>
<text transform="matrix(1 0 0 1 246.8262 539.2689)" class="st1 st2">.</text>
<text transform="matrix(1 0 0 1 248.7725 539.2689)" class="st1 st2"> </text>
<text transform="matrix(1 0 0 1 250.7188 539.2689)" class="st1 st2">.</text>
<text transform="matrix(1 0 0 1 252.6641 539.2689)" class="st1 st2"> </text>
<text transform="matrix(1 0 0 1 254.6104 539.2689)" class="st1 st2">.</text>
<text transform="matrix(1 0 0 1 256.5566 539.2689)" class="st1 st2"> </text>
<text transform="matrix(1 0 0 1 258.502 539.2689)" class="st1 st2">.</text>
<text transform="matrix(1 0 0 1 260.4482 539.2689)" class="st1 st2"> </text>
<text transform="matrix(1 0 0 1 262.3945 539.2689)" class="st1 st2">.</text>
<text transform="matrix(1 0 0 1 264.3408 539.2689)" class="st1 st2"> </text>
<text transform="matrix(1 0 0 1 266.2861 539.2689)" class="st1 st2">.</text>
<text transform="matrix(1 0 0 1 268.2324 539.2689)" class="st1 st2"> </text>
<text transform="matrix(1 0 0 1 270.1787 539.2689)" class="st1 st2">.</text>
<text transform="matrix(1 0 0 1 272.124 539.2689)" class="st1 st2"> </text>
<text transform="matrix(1 0 0 1 274.0703 539.2689)" class="st1 st2">.</text>
<text transform="matrix(1 0 0 1 276.0166 539.2689)" class="st1 st2"> </text>
<text transform="matrix(1 0 0 1 277.9619 539.2689)" class="st1 st2">.</text>
<text transform="matrix(1 0 0 1 279.9082 539.2689)" class="st1 st2"> </text>
<text transform="matrix(1 0 0 1 281.8545 539.2689)" class="st1 st2">.</text>
<text transform="matrix(1 0 0 1 283.7998 539.2689)" class="st1 st2"> </text>
<text transform="matrix(1 0 0 1 285.7461 539.2689)" class="st1 st2">.</text>
<text transform="matrix(1 0 0 1 287.6924 539.2689)" class="st1 st2"> </text>
<text transform="matrix(1 0 0 1 289.6387 539.2689)" class="st1 st2">.</text>
<text transform="matrix(1 0 0 1 65.2637 558.6849)" class="st1 st7">GENEESMIDDELENVOORSCHRIFT</text>
<g>
	<defs>
		<rect id="SVGID_1_" x="2" y="2.3" width="293.1" height="561.8"/>
	</defs>
	<clipPath id="SVGID_2_">
		<use xlink:href="#SVGID_1_"  style="overflow:visible;"/>
	</clipPath>
	<path class="st8" d="M296.9,581.3v15 M296.9-14v-15 M-0.7,581.3v15 M-0.7-14v-15 M311.1,567.1h15 M-14.9,567.1h-15 M311.1,0.2h15
		 M-14.9,0.2h-15"/>
	<path class="st9" d="M296.9,581.3v15 M296.9-14v-15 M-0.7,581.3v15 M-0.7-14v-15 M311.1,567.1h15 M-14.9,567.1h-15 M311.1,0.2h15
		 M-14.9,0.2h-15"/>
	<path class="st8" d="M296.9,570.1v18 M296.9-2.8v-18 M-0.7,570.1v18 M-0.7-2.8v-18 M299.9,567.1h18 M-3.7,567.1h-18 M299.9,0.2h18
		 M-3.7,0.2h-18"/>
	<path class="st9" d="M296.9,570.1v18 M296.9-2.8v-18 M-0.7,570.1v18 M-0.7-2.8v-18 M299.9,567.1h18 M-3.7,567.1h-18 M299.9,0.2h18
		 M-3.7,0.2h-18"/>
	<circle class="st8" cx="148.1" cy="-21.5" r="5"/>
	<circle class="st8" cx="148.1" cy="-21.5" r="3"/>
	<circle class="st9" cx="148.1" cy="-21.5" r="5"/>
	<path class="st10" d="M151.1-21.5c0,1.7-1.3,3-3,3c-1.7,0-3-1.3-3-3c0-1.7,1.3-3,3-3C149.8-24.5,151.1-23.1,151.1-21.5"/>
	<line class="st11" x1="145.1" y1="-21.5" x2="151.1" y2="-21.5"/>
	<line class="st11" x1="148.1" y1="-24.5" x2="148.1" y2="-18.5"/>
	<circle class="st8" cx="148.1" cy="588.8" r="5"/>
	<line class="st8" x1="142.1" y1="588.8" x2="154.1" y2="588.8"/>
	<line class="st8" x1="148.1" y1="582.8" x2="148.1" y2="594.8"/>
	<circle class="st8" cx="148.1" cy="588.8" r="3"/>
	<circle class="st9" cx="148.1" cy="588.8" r="5"/>
	<line class="st9" x1="142.1" y1="588.8" x2="154.1" y2="588.8"/>
	<line class="st9" x1="148.1" y1="582.8" x2="148.1" y2="594.8"/>
	<path class="st10" d="M151.1,588.8c0,1.7-1.3,3-3,3c-1.7,0-3-1.3-3-3c0-1.7,1.3-3,3-3C149.8,585.8,151.1,587.1,151.1,588.8"/>
	<line class="st11" x1="145.1" y1="588.8" x2="151.1" y2="588.8"/>
	<line class="st11" x1="148.1" y1="585.8" x2="148.1" y2="591.8"/>
	<circle class="st8" cx="-22.4" cy="283.6" r="5"/>
	<line class="st8" x1="-28.4" y1="283.6" x2="-16.4" y2="283.6"/>
	<line class="st8" x1="-22.4" y1="277.6" x2="-22.4" y2="289.6"/>
	<circle class="st8" cx="-22.4" cy="283.6" r="3"/>
	<circle class="st9" cx="-22.4" cy="283.6" r="5"/>
	<line class="st9" x1="-28.4" y1="283.6" x2="-16.4" y2="283.6"/>
	<line class="st9" x1="-22.4" y1="277.6" x2="-22.4" y2="289.6"/>
	<path class="st10" d="M-19.4,283.6c0,1.7-1.3,3-3,3c-1.7,0-3-1.3-3-3c0-1.7,1.3-3,3-3C-20.7,280.6-19.4,282-19.4,283.6"/>
	<line class="st11" x1="-25.4" y1="283.6" x2="-19.4" y2="283.6"/>
	<line class="st11" x1="-22.4" y1="280.6" x2="-22.4" y2="286.6"/>
	<circle class="st8" cx="318.6" cy="283.6" r="5"/>
	<line class="st8" x1="312.6" y1="283.6" x2="324.6" y2="283.6"/>
	<line class="st8" x1="318.6" y1="277.6" x2="318.6" y2="289.6"/>
	<circle class="st8" cx="318.6" cy="283.6" r="3"/>
	<circle class="st9" cx="318.6" cy="283.6" r="5"/>
	<line class="st9" x1="312.6" y1="283.6" x2="324.6" y2="283.6"/>
	<line class="st9" x1="318.6" y1="277.6" x2="318.6" y2="289.6"/>
	<path class="st10" d="M321.6,283.6c0,1.7-1.3,3-3,3c-1.7,0-3-1.3-3-3c0-1.7,1.3-3,3-3C320.3,280.6,321.6,282,321.6,283.6"/>
	<line class="st11" x1="315.6" y1="283.6" x2="321.6" y2="283.6"/>
	<line class="st11" x1="318.6" y1="280.6" x2="318.6" y2="286.6"/>
	<path class="st12" d="M-21.2,594.1h1.7c0.7,0,1.2-0.3,1.5-1c0.2-0.4,0.3-0.8,0.3-1.2c0-0.6-0.1-1.1-0.4-1.5
		c-0.3-0.4-0.8-0.6-1.4-0.6h-1.7V594.1z M-20.6,593.6v-3.3h1c0.5,0,0.8,0.1,1,0.4c0.2,0.3,0.3,0.7,0.3,1.2c0,0.1,0,0.3,0,0.5
		c0,0.3-0.1,0.5-0.2,0.7c-0.1,0.2-0.3,0.4-0.5,0.4c-0.1,0-0.3,0.1-0.5,0.1H-20.6z"/>
	<path class="st12" d="M-10.1,591.1v3h0.6v-4.2H-10c-0.1,0.3-0.2,0.5-0.3,0.6c-0.2,0.1-0.4,0.1-0.8,0.2v0.4H-10.1z"/>
	<path class="st12" d="M-8.1,590v0.5h2.3c-0.3,0.3-0.6,0.7-0.8,1.2c-0.5,0.8-0.7,1.6-0.9,2.4H-7c0.1-0.4,0.2-0.7,0.2-0.9
		c0.1-0.3,0.2-0.6,0.4-1c0.2-0.4,0.4-0.7,0.6-1c0.2-0.3,0.4-0.6,0.5-0.7V590H-8.1z"/>
	<path class="st12" d="M-4.8,590v0.5h2.3c-0.3,0.3-0.6,0.7-0.8,1.2c-0.5,0.8-0.7,1.6-0.9,2.4h0.6c0.1-0.4,0.2-0.7,0.2-0.9
		c0.1-0.3,0.2-0.6,0.4-1c0.2-0.4,0.4-0.7,0.6-1c0.2-0.3,0.4-0.6,0.5-0.7V590H-4.8z"/>
	<path class="st12" d="M-1.5,590v0.5h2.3c-0.3,0.3-0.6,0.7-0.8,1.2c-0.5,0.8-0.7,1.6-0.9,2.4h0.6c0.1-0.4,0.2-0.7,0.2-0.9
		c0.1-0.3,0.2-0.6,0.4-1c0.2-0.4,0.4-0.7,0.6-1c0.2-0.3,0.4-0.6,0.5-0.7V590H-1.5z"/>
	<path class="st12" d="M10.9,594.2c0.5,0,0.9-0.1,1.1-0.4s0.4-0.6,0.4-1c0-0.2-0.1-0.5-0.2-0.6c-0.1-0.2-0.3-0.3-0.5-0.4
		c0.1-0.1,0.2-0.1,0.3-0.2c0.1-0.2,0.2-0.4,0.2-0.6c0-0.4-0.1-0.6-0.4-0.8c-0.2-0.2-0.6-0.3-1-0.3c-0.5,0-0.9,0.2-1.1,0.6
		c-0.1,0.2-0.2,0.5-0.2,0.8h0.5c0-0.2,0.1-0.4,0.1-0.5c0.1-0.2,0.4-0.4,0.7-0.4c0.2,0,0.4,0.1,0.5,0.2c0.1,0.1,0.2,0.3,0.2,0.5
		c0,0.3-0.1,0.5-0.3,0.6c-0.1,0.1-0.3,0.1-0.5,0.1c0,0-0.1,0-0.1,0c0,0-0.1,0-0.1,0v0.5c0,0,0.1,0,0.1,0c0,0,0.1,0,0.1,0
		c0.3,0,0.6,0.1,0.7,0.2c0.2,0.1,0.3,0.3,0.3,0.6c0,0.2-0.1,0.4-0.3,0.6c-0.2,0.1-0.4,0.2-0.7,0.2c-0.4,0-0.6-0.1-0.7-0.3
		c-0.1-0.1-0.1-0.3-0.2-0.6H9.5c0,0.4,0.1,0.7,0.3,1C10,594.1,10.4,594.2,10.9,594.2z"/>
	<path class="st12" d="M14.3,593.7c-0.3,0-0.6-0.2-0.7-0.6c-0.1-0.3-0.1-0.6-0.1-1c0-0.6,0.1-1,0.2-1.3c0.1-0.3,0.4-0.4,0.7-0.4
		c0.3,0,0.6,0.2,0.7,0.5c0.1,0.3,0.2,0.7,0.2,1.2c0,0.7-0.1,1.1-0.2,1.4C14.8,593.6,14.5,593.7,14.3,593.7z M14.3,589.9
		c-0.6,0-1,0.3-1.3,1c-0.1,0.3-0.2,0.8-0.2,1.2c0,0.6,0.1,1.1,0.3,1.5c0.2,0.4,0.6,0.7,1.1,0.7c0.6,0,1-0.3,1.2-0.8
		c0.2-0.4,0.3-0.8,0.3-1.4c0-0.6-0.1-1.1-0.3-1.4C15.2,590.1,14.8,589.9,14.3,589.9z"/>
	<path class="st12" d="M21.6,589.7c-0.6,0-1.1,0.2-1.5,0.7c-0.3,0.4-0.5,0.9-0.5,1.6c0,0.8,0.2,1.5,0.7,1.9c0.3,0.3,0.8,0.5,1.2,0.5
		c0.6,0,1-0.2,1.4-0.6c0.3-0.3,0.4-0.7,0.5-1.1h-0.6c-0.1,0.3-0.1,0.5-0.3,0.7c-0.2,0.3-0.5,0.5-1,0.5c-0.5,0-0.8-0.2-1-0.5
		c-0.2-0.3-0.3-0.7-0.3-1.2c0-0.6,0.1-1.1,0.4-1.4c0.3-0.3,0.6-0.4,1-0.4c0.3,0,0.6,0.1,0.8,0.2c0.2,0.2,0.3,0.4,0.4,0.7h0.6
		c0-0.4-0.2-0.7-0.5-1C22.5,589.8,22.1,589.7,21.6,589.7z"/>
	<path class="st12" d="M32.5,594.1h0.6v-1.8h1.3c0.2,0,0.4,0,0.5,0.1c0.2,0.1,0.3,0.3,0.3,0.6l0,0.7c0,0.2,0,0.3,0,0.3
		c0,0.1,0,0.1,0,0.1H36V594c-0.1,0-0.2-0.1-0.2-0.3c0-0.1,0-0.2,0-0.4l0-0.6c0-0.2-0.1-0.4-0.1-0.5c-0.1-0.1-0.2-0.2-0.4-0.3
		c0.2-0.1,0.3-0.2,0.4-0.4c0.1-0.2,0.2-0.4,0.2-0.6c0-0.5-0.2-0.8-0.6-1c-0.2-0.1-0.5-0.1-0.8-0.1h-2V594.1z M33.1,591.8v-1.5h1.4
		c0.2,0,0.3,0,0.5,0.1c0.2,0.1,0.3,0.3,0.3,0.6c0,0.3-0.1,0.5-0.2,0.6c-0.2,0.1-0.4,0.2-0.6,0.2H33.1z"/>
	<path class="st12" d="M42,593.7c-0.5,0-0.9-0.2-1.2-0.5c-0.2-0.3-0.4-0.7-0.4-1.2c0-0.6,0.1-1,0.4-1.4c0.3-0.3,0.6-0.5,1.1-0.5
		c0.5,0,0.8,0.2,1.1,0.5c0.3,0.3,0.4,0.7,0.4,1.2c0,0.5-0.1,0.9-0.3,1.3C42.9,593.5,42.5,593.7,42,593.7z M42,589.7
		c-0.7,0-1.3,0.3-1.6,0.8c-0.3,0.4-0.4,0.9-0.4,1.5c0,0.6,0.2,1.2,0.5,1.6c0.4,0.4,0.9,0.7,1.6,0.7c0.7,0,1.3-0.2,1.6-0.8
		c0.3-0.4,0.5-1,0.5-1.6c0-0.6-0.1-1.1-0.4-1.5C43.3,589.9,42.7,589.7,42,589.7z"/>
	<path class="st12" d="M59,594.1h0.5v-1.6c0-0.2,0-0.4,0-0.5c0-0.1,0.1-0.2,0.2-0.3c0.1-0.1,0.2-0.2,0.4-0.3c0.1,0,0.2,0,0.3,0
		c0.2,0,0.4,0.1,0.5,0.3c0.1,0.1,0.1,0.3,0.1,0.5v2h0.5v-2c0-0.3,0-0.6-0.1-0.7c-0.2-0.3-0.5-0.5-0.9-0.5c-0.2,0-0.4,0-0.6,0.1
		c-0.2,0.1-0.3,0.2-0.5,0.4V591H59V594.1z"/>
	<path class="st12" d="M63.5,590.9c-0.4,0-0.8,0.2-1,0.5c-0.2,0.3-0.3,0.7-0.3,1.2c0,0.5,0.1,0.9,0.4,1.2c0.3,0.3,0.6,0.4,0.9,0.4
		c0.2,0,0.4,0,0.6-0.1c0.2-0.1,0.3-0.2,0.4-0.4v0.4h0.5v-4.3h-0.5v1.6c-0.1-0.1-0.2-0.2-0.3-0.3C63.9,591,63.7,590.9,63.5,590.9z
		 M62.7,592.6c0-0.4,0.1-0.7,0.2-0.9c0.2-0.2,0.4-0.3,0.6-0.3c0.2,0,0.4,0.1,0.6,0.3c0.2,0.2,0.2,0.5,0.2,0.9c0,0.4-0.1,0.7-0.2,0.9
		c-0.2,0.2-0.4,0.3-0.6,0.3c-0.3,0-0.5-0.1-0.7-0.3C62.8,593.2,62.7,592.9,62.7,592.6z"/>
	<path class="st12" d="M66.8,590.9c-0.4,0-0.8,0.2-1,0.5c-0.2,0.3-0.3,0.7-0.3,1.2c0,0.5,0.1,0.9,0.4,1.2s0.6,0.4,0.9,0.4
		c0.2,0,0.4,0,0.6-0.1c0.2-0.1,0.3-0.2,0.4-0.4v0.4h0.5v-4.3h-0.5v1.6c-0.1-0.1-0.2-0.2-0.3-0.3C67.3,591,67.1,590.9,66.8,590.9z
		 M66.1,592.6c0-0.4,0.1-0.7,0.2-0.9c0.2-0.2,0.4-0.3,0.6-0.3c0.2,0,0.4,0.1,0.6,0.3c0.2,0.2,0.2,0.5,0.2,0.9c0,0.4-0.1,0.7-0.2,0.9
		c-0.2,0.2-0.4,0.3-0.6,0.3c-0.3,0-0.5-0.1-0.7-0.3C66.1,593.2,66.1,592.9,66.1,592.6z"/>
	<path class="st12" d="M75.2,591.1v3h0.6v-4.2h-0.4c-0.1,0.3-0.2,0.5-0.3,0.6c-0.2,0.1-0.4,0.1-0.8,0.2v0.4H75.2z"/>
</g>
<g>
	<defs>
		<rect id="SVGID_3_" x="2" y="2.3" width="293.1" height="561.8"/>
	</defs>
	<clipPath id="SVGID_4_">
		<use xlink:href="#SVGID_3_"  style="overflow:visible;"/>
	</clipPath>
	<g class="st13">
		<text transform="matrix(1 0 0 1 -21.7085 594.1136)" class="st16 st4">DIV1777N_30_CHARLOTTE.indd   1</text>
	</g>
	<path class="st14" d="M270.1,594.1h2.9v-0.5h-2.3c0.1-0.2,0.2-0.4,0.4-0.6c0.1-0.1,0.3-0.2,0.5-0.3l0.4-0.2
		c0.4-0.2,0.6-0.4,0.7-0.5c0.2-0.2,0.4-0.5,0.4-0.9c0-0.3-0.1-0.6-0.3-0.9c-0.2-0.3-0.6-0.4-1.1-0.4c-0.6,0-1,0.2-1.2,0.6
		c-0.1,0.2-0.2,0.5-0.2,0.9h0.5c0-0.3,0-0.5,0.1-0.6c0.1-0.3,0.4-0.4,0.8-0.4c0.2,0,0.4,0.1,0.6,0.2c0.1,0.1,0.2,0.3,0.2,0.6
		c0,0.2-0.1,0.4-0.2,0.6c-0.1,0.1-0.3,0.2-0.5,0.4l-0.6,0.3c-0.4,0.2-0.6,0.5-0.8,0.7C270.2,593.4,270.1,593.8,270.1,594.1z"/>
	<path class="st14" d="M274.9,592.2c-0.3,0-0.5-0.1-0.6-0.2c-0.1-0.2-0.2-0.4-0.2-0.7c0-0.3,0.1-0.5,0.2-0.7
		c0.2-0.2,0.4-0.3,0.6-0.3c0.2,0,0.4,0.1,0.6,0.2c0.2,0.2,0.2,0.4,0.2,0.7c0,0.3-0.1,0.6-0.3,0.7
		C275.3,592.2,275.1,592.2,274.9,592.2z M273.5,593.1c0,0.3,0.1,0.6,0.3,0.8c0.2,0.2,0.5,0.3,0.9,0.3c0.6,0,1-0.3,1.3-1
		c0.2-0.4,0.2-0.9,0.2-1.4c0-0.5-0.1-0.8-0.2-1.1c-0.2-0.6-0.7-0.8-1.3-0.8c-0.5,0-0.8,0.1-1,0.4c-0.2,0.3-0.3,0.6-0.3,1
		c0,0.4,0.1,0.7,0.4,1c0.2,0.3,0.6,0.4,1,0.4c0.2,0,0.4,0,0.6-0.1s0.3-0.2,0.4-0.4c-0.1,0.6-0.2,1.1-0.4,1.3
		c-0.2,0.2-0.4,0.3-0.6,0.3c-0.1,0-0.3,0-0.4-0.1c-0.2-0.1-0.3-0.3-0.3-0.6H273.5z"/>
	<path class="st14" d="M279.9,593.7c-0.3,0-0.6-0.2-0.7-0.6c-0.1-0.3-0.1-0.6-0.1-1c0-0.6,0.1-1,0.2-1.3c0.1-0.3,0.4-0.4,0.7-0.4
		c0.3,0,0.6,0.2,0.7,0.5c0.1,0.3,0.2,0.7,0.2,1.2c0,0.7-0.1,1.1-0.2,1.4C280.4,593.6,280.2,593.7,279.9,593.7z M279.9,589.9
		c-0.6,0-1,0.3-1.3,1c-0.1,0.3-0.2,0.8-0.2,1.2c0,0.6,0.1,1.1,0.3,1.5c0.2,0.4,0.6,0.7,1.1,0.7c0.6,0,1-0.3,1.2-0.8
		c0.2-0.4,0.3-0.8,0.3-1.4c0-0.6-0.1-1.1-0.3-1.4C280.8,590.1,280.4,589.9,279.9,589.9z"/>
	<path class="st14" d="M283.2,591.1v3h0.6v-4.2h-0.4c-0.1,0.3-0.2,0.5-0.3,0.6c-0.2,0.1-0.4,0.1-0.8,0.2v0.4H283.2z"/>
	<path class="st14" d="M288.2,591.1v3h0.6v-4.2h-0.4c-0.1,0.3-0.2,0.5-0.3,0.6c-0.2,0.1-0.4,0.1-0.8,0.2v0.4H288.2z"/>
	<path class="st14" d="M290.9,591.9c-0.2,0.1-0.4,0.2-0.5,0.4c-0.1,0.2-0.2,0.4-0.2,0.6c0,0.4,0.1,0.7,0.4,1c0.3,0.2,0.6,0.3,1,0.3
		c0.5,0,0.8-0.1,1.1-0.4c0.2-0.3,0.4-0.6,0.4-0.9c0-0.3-0.1-0.6-0.3-0.8c-0.1-0.1-0.2-0.2-0.4-0.3c0.2-0.1,0.3-0.2,0.3-0.3
		c0.1-0.2,0.2-0.4,0.2-0.6c0-0.3-0.1-0.5-0.3-0.7c-0.2-0.2-0.5-0.3-0.9-0.3c-0.4,0-0.7,0.1-1,0.3c-0.2,0.2-0.3,0.5-0.3,0.8
		c0,0.2,0.1,0.5,0.2,0.6C290.6,591.7,290.7,591.8,290.9,591.9z M291.6,593.8c-0.3,0-0.5-0.1-0.7-0.2c-0.1-0.2-0.2-0.3-0.2-0.6
		c0-0.3,0.1-0.5,0.2-0.6c0.2-0.1,0.4-0.2,0.6-0.2c0.3,0,0.5,0.1,0.6,0.2c0.2,0.1,0.2,0.3,0.2,0.6c0,0.3-0.1,0.5-0.2,0.6
		C292.1,593.7,291.9,593.8,291.6,593.8z M291.6,591.7c-0.2,0-0.4-0.1-0.5-0.2c-0.1-0.1-0.2-0.3-0.2-0.5c0-0.2,0.1-0.3,0.2-0.5
		s0.3-0.2,0.5-0.2c0.3,0,0.4,0.1,0.6,0.2c0.1,0.1,0.2,0.3,0.2,0.4c0,0.2-0.1,0.3-0.2,0.5C292,591.6,291.8,591.7,291.6,591.7z"/>
	<path class="st14" d="M299.8,591.1v3h0.6v-4.2H300c-0.1,0.3-0.2,0.5-0.3,0.6c-0.2,0.1-0.4,0.1-0.8,0.2v0.4H299.8z"/>
	<path class="st14" d="M308.2,594.2c0.5,0,0.9-0.1,1.1-0.4s0.4-0.6,0.4-1c0-0.2-0.1-0.5-0.2-0.6c-0.1-0.2-0.3-0.3-0.5-0.4
		c0.1-0.1,0.2-0.1,0.3-0.2c0.1-0.2,0.2-0.4,0.2-0.6c0-0.4-0.1-0.6-0.4-0.8c-0.2-0.2-0.6-0.3-1-0.3c-0.5,0-0.9,0.2-1.1,0.6
		c-0.1,0.2-0.2,0.5-0.2,0.8h0.5c0-0.2,0.1-0.4,0.1-0.5c0.1-0.2,0.4-0.4,0.7-0.4c0.2,0,0.4,0.1,0.5,0.2c0.1,0.1,0.2,0.3,0.2,0.5
		c0,0.3-0.1,0.5-0.3,0.6c-0.1,0.1-0.3,0.1-0.5,0.1c0,0-0.1,0-0.1,0c0,0-0.1,0-0.1,0v0.5c0,0,0.1,0,0.1,0c0,0,0.1,0,0.1,0
		c0.3,0,0.6,0.1,0.7,0.2c0.2,0.1,0.3,0.3,0.3,0.6c0,0.2-0.1,0.4-0.3,0.6c-0.2,0.1-0.4,0.2-0.7,0.2c-0.4,0-0.6-0.1-0.7-0.3
		c-0.1-0.1-0.1-0.3-0.2-0.6h-0.6c0,0.4,0.1,0.7,0.3,1C307.3,594.1,307.7,594.2,308.2,594.2z"/>
	<g class="st13">
		<text transform="matrix(1 0 0 1 269.9297 594.1136)" class="st16 st4">29/01/18   14:34</text>
	</g>
</g>
<text transform="matrix(1 0 0 1 169.833 157.9105)" class="st15 st2">$h_last_name $h_first_name</text>
<text transform="matrix(1 0 0 1 12.3467 473.2532)" class="st16 st2">$s_title $s_last_name $s_first_name</text>
<text transform="matrix(1 0 0 1 48.2075 481.6536)" class="st16 st2">$s_inami_number</text>
<text transform="matrix(1 0 0 1 54.2344 490.053)" class="st16 st2">$s_speciality</text>
<text transform="matrix(1 0 0 1 56.9575 498.4534)" class="st16 st2">$s_institute</text>
<text transform="matrix(1 0 0 1 59.8765 506.8528)" class="st16 st2">$s_street</text>
<text transform="matrix(1 0 0 1 49.1807 515.2532)" class="st16 st2">$s_zip $s_city</text>
<text transform="matrix(1 0 0 1 59.0928 523.6536)" class="st16 st2">$s_phone</text>
<text transform="matrix(1 0 0 1 63.3765 532.053)" class="st16 st2">$s_fax</text>
<text transform="matrix(1 0 0 1 60.4575 540.4534)" class="st16 st2">$s_email</text>
<g>
	<defs>
		<rect id="SVGID_5_" x="16.5" y="121" width="121.8" height="45.7"/>
	</defs>
	<clipPath id="SVGID_6_">
		<use xlink:href="#SVGID_5_"  style="overflow:visible;"/>
	</clipPath>
	<path class="st17" d="M27,152.8v-32.2 M25.2,152.8v-32.2"/>
	<line class="st18" x1="29.7" y1="152.8" x2="29.7" y2="120.6"/>
	<path class="st17" d="M37.7,152.8v-32.2 M34.2,152.8v-32.2 M32.4,152.8v-32.2"/>
	<line class="st18" x1="42.2" y1="152.8" x2="42.2" y2="120.6"/>
	<path class="st17" d="M46.7,152.8v-32.2 M44.9,152.8v-32.2"/>
	<path class="st18" d="M54.8,152.8v-32.2 M49.4,152.8v-32.2"/>
	<path class="st17" d="M66.4,152.8v-32.2 M64.6,152.8v-32.2 M61,152.8v-32.2 M59.2,152.8v-32.2"/>
	<path class="st18" d="M74.4,152.8v-32.2 M69.1,152.8v-32.2"/>
	<line class="st17" x1="77.1" y1="152.8" x2="77.1" y2="120.6"/>
	<line class="st18" x1="79.8" y1="152.8" x2="79.8" y2="120.6"/>
	<path class="st17" d="M87.9,152.8v-32.2 M84.3,152.8v-32.2"/>
	<line class="st18" x1="90.5" y1="152.8" x2="90.5" y2="120.6"/>
	<path class="st17" d="M95,152.8v-32.2 M93.2,152.8v-32.2"/>
	<path class="st18" d="M103.1,152.8v-32.2 M97.7,152.8v-32.2"/>
	<path class="st17" d="M111.1,152.8v-32.2 M109.3,152.8v-32.2 M107.5,152.8v-32.2"/>
	<line class="st18" x1="113.8" y1="152.8" x2="113.8" y2="120.6"/>
	<line class="st17" x1="118.3" y1="152.8" x2="118.3" y2="120.6"/>
	<path class="st18" d="M126.3,152.8v-32.2 M121,152.8v-32.2"/>
	<line class="st17" x1="129" y1="152.8" x2="129" y2="120.6"/>
	<g class="st19">
		<text transform="matrix(1 0 0 1 41.8784 164.7176)" class="st20 st21">$h_inami_number</text>
	</g>
</g>
</svg>
