<?xml version="1.0" encoding="utf-8"?>
<svg version="1.1" id="Calque_1" xmlns="http://www.w3.org/2000/svg" xmlns:xlink="http://www.w3.org/1999/xlink" x="0px" y="0px"
	 viewBox="0 0 297.6 566.9" style="enable-background:new 0 0 297.6 566.9;" xml:space="preserve">

<style type="text/css">
	.st0{fill:none;stroke:#000000;stroke-width:0.75;}
	.st1{font-family:'HelveticaNeue';}
	.st2{font-size:7px;}
	.st3{letter-spacing:1;}
	.st4{font-size:6px;}
	.st5{font-family:'Times-Roman';}
	.st6{font-size:10px;}
	.st7{font-size:10.5px;}
	.st8{clip-path:url(#SVGID_2_);fill:none;stroke:#FFFFFF;stroke-width:1.25;stroke-miterlimit:10;}
	.st9{clip-path:url(#SVGID_2_);fill:none;stroke:#000000;stroke-width:0.25;stroke-miterlimit:10;}
	.st10{clip-path:url(#SVGID_2_);}
	.st11{clip-path:url(#SVGID_2_);fill:none;stroke:#FFFFFF;stroke-width:0.25;stroke-miterlimit:10;}
	.st12{clip-path:url(#SVGID_2_);fill:none;stroke:#FFFFFF;stroke-width:0.4;stroke-miterlimit:10;}
	.st13{clip-path:url(#SVGID_4_);}
	.st14{clip-path:url(#SVGID_4_);fill:none;stroke:#FFFFFF;stroke-width:0.4;stroke-miterlimit:10;}
	.st15{font-family:'Helvetica-Bold';}
	.st16{font-family:'Helvetica';}
	.st17{clip-path:url(#SVGID_6_);fill:none;stroke:#000000;stroke-width:0.761;stroke-miterlimit:10;}
	.st18{clip-path:url(#SVGID_6_);fill:none;stroke:#000000;stroke-width:2.551;stroke-miterlimit:10;}
	.st19{clip-path:url(#SVGID_6_);}
	.st20{font-family:'MinionPro-Regular';}
	.st21{font-size:8.9492px;}
	.st22{font-weight:bold;}
	.st23{font-size:5px;}
</style>

<line class="st0" x1="5.8" y1="91.7" x2="290.6" y2="91.7"/>
<line class="st0" x1="5.8" y1="152.1" x2="290.6" y2="152.1"/>
<line class="st0" x1="6.6" y1="195.1" x2="291.3" y2="195.1"/>
<line class="st0" x1="6.6" y1="432.4" x2="291.3" y2="432.4"/>
<line class="st0" x1="6.6" y1="524.5" x2="291.3" y2="524.5"/>
<line class="st0" x1="147.2" y1="91.6" x2="147.2" y2="154.2"/>
<line class="st0" x1="147.2" y1="432.4" x2="147.2" y2="524.5"/>
<line class="st0" x1="89.1" y1="195" x2="89.1" y2="432.2"/>
<line class="st0" x1="147.3" y1="480.5" x2="291.3" y2="480.5"/>

<text transform="matrix(1 0 0 1 148.7197 106.1956)"><tspan x="0" y="0" class="st1 st2">Nom et prénom du prescripteur</tspan></text>
<text transform="matrix(1 0 0 1 5.8481 167.6907)" class="st1 st2">A REMPLIR PAR LE PRESCRIPTEUR:</text>
<text transform="matrix(1 0 0 1 5.8481 178.6878)"><tspan x="0" y="0" class="st1 st2">Nom et prénom </tspan></text>
<text transform="matrix(1 0 0 1 5.8481 189.6849)"><tspan x="0" y="0" class="st1 st2">du bénéficiaire:</tspan></text>
<text transform="matrix(1 0 0 1 62.7964 189.6849)"><tspan x="0" y="0" class="st1 st2 st3">......................................................................</tspan></text>
<text transform="matrix(1 0 0 1 5.8481 208.7083)"><tspan x="0" y="0" class="st1 st4">Réservé à la vignette</tspan></text>
<text transform="matrix(1 0 0 1 5.8481 215.9085)" class="st1 st4">du conditionnement</text>
<text transform="matrix(1 0 0 1 100.1001 210.4964)" class="st5 st6">R/</text>
<text transform="matrix(1 0 0 1 30.0327 444.2269)" class="st1 st2">Cachet du prescripteur</text>
<text transform="matrix(1 0 0 1 159.5596 444.2269)" class="st1 st2">Date et signature du prescripteur </text>
<text transform="matrix(1 0 0 1 159.5596 491.471)"><tspan x="0" y="0" class="st1 st2">Date de fin pour l'exécution:</tspan></text>
<!--<text transform="matrix(1 0 0 1 152.8301 510.471)"><tspan x="0" y="0" class="st1 st2">Délivrable à partir de la date précisée</tspan></text>-->
<!--<text transform="matrix(1 0 0 1 195.7656 518.8714)" class="st1 st2">ou à partir du:</text>-->
<!--<text transform="matrix(1 0 0 1 149.5264 539.2689)" class="st1 st2">. . . . . . . . . . . . . . . . . . . . . . . . . . . . . . . .</text>-->
<text transform="matrix(1 0 0 1 65.2637 539.6849)" class="st1 st7">PRESCRIPTION DE MEDICAMENTS</text>
<text transform="matrix(1 0 0 1 36.2637 553.6849)" class="st1 st7">D'APPLICATION A PARTIR DU 1er novembre 2019</text>
<text transform="matrix(1 0 0 1 148.833 138.9105)" class="st15 st2 st22">$h_last_name $h_first_name</text>
$signet

<g>
	$image_bar_code

	<g class="st19">
		<text transform="matrix(1 0 0 1 41.8784 145.7176)" class="st20 st21">$h_inami_number</text>
	</g>
</g>
	
</svg>
